<svg xmlns="http://www.w3.org/2000/svg" viewBox="0 0 562.05 162.81"><defs><style>.cls-1{font-size:33.49px;font-family:CenturyGothic, Century Gothic;}.cls-1,.cls-2{fill:#0f70b7;}</style></defs><g id="Слой_2" data-name="Слой 2"><g id="Слой_1-2" data-name="Слой 1"><text class="cls-1" transform="translate(0 152.54)">by NAPA</text><path class="cls-2" d="M194.35,111.2l20.53,44h-4.75l-6.92-14.48h-19l-6.86,14.48h-4.9l20.79-44Zm-.55,9.35-7.55,15.94H201.3Z"/><path class="cls-2" d="M221.85,111.2h4.4v26.57a54.88,54.88,0,0,0,.18,5.9A9.69,9.69,0,0,0,228,148a9,9,0,0,0,3.68,2.94,11.62,11.62,0,0,0,5,1.18,9.88,9.88,0,0,0,4.19-.93,9.48,9.48,0,0,0,3.35-2.57,10.55,10.55,0,0,0,2-4,32.91,32.91,0,0,0,.45-6.89V111.2H251v26.57a32.4,32.4,0,0,1-1.15,9.54,13,13,0,0,1-4.61,6.32,13.16,13.16,0,0,1-8.36,2.7,16,16,0,0,1-9.13-2.55,12.22,12.22,0,0,1-5.09-6.73c-.54-1.71-.81-4.81-.81-9.28Z"/><path class="cls-2" d="M257.46,115.51V111.2h24.12v4.31h-9.81v39.71h-4.49V115.51Z"/><path class="cls-2" d="M339.19,155.22l6.3-44h.72l17.89,36.12,17.73-36.12h.7l6.34,44h-4.32l-4.35-31.48-15.56,31.48h-1.13L347.76,123.5l-4.32,31.72Z"/><path class="cls-2" d="M446.41,115.51V111.2h24.12v4.31h-9.81v39.71h-4.49V115.51Z"/><path class="cls-2" d="M476.25,111.2h4.4v44h-4.4Z"/><path class="cls-2" d="M487.38,111.2h4.79l14.59,34,14.82-34h4.79l-19.15,44h-1Z"/><path class="cls-2" d="M533.79,111.2H559v4.31H538.19v13.8h20.65v4.3H538.19v17.3h20.65v4.31H533.79Z"/><path class="cls-2" d="M309.27,111A22.13,22.13,0,1,0,331,133.1,21.93,21.93,0,0,0,309.27,111Zm11.17,19.53-11.75,21.28a.3.3,0,0,1-.56-.15L308.06,137h-9.71a.32.32,0,0,1-.26-.47l12-22.08a.3.3,0,0,1,.57.16l.08,15.46h9.42A.31.31,0,0,1,320.44,130.5Z"/><path class="cls-2" d="M0,78V1.91H15.82q17.07,0,24.78,2.75A33.12,33.12,0,0,1,57.91,18.11q6.24,9.57,6.23,22.81A40,40,0,0,1,59.2,61.05,31.67,31.67,0,0,1,46.37,73.88Q38.48,78,24.26,78Zm7.3-7.19h8.79q15.78,0,21.89-2a25.26,25.26,0,0,0,13.5-10q4.92-7.26,4.92-17.76,0-11-5.33-18.81a26.85,26.85,0,0,0-14.85-10.7Q29.12,9.37,12.72,9.36H7.34Z"/><path class="cls-2" d="M125.09,59.34l6.1,3.21a33.25,33.25,0,0,1-6.94,9.52,27.59,27.59,0,0,1-8.85,5.51,30.85,30.85,0,0,1-11.13,1.89q-13.78,0-21.55-9A30.49,30.49,0,0,1,75,50a30.11,30.11,0,0,1,6.57-19.09q8.34-10.67,22.32-10.66,14.4,0,23,10.92,6.12,7.71,6.22,19.24H82.41q.2,9.81,6.26,16.08a20,20,0,0,0,15,6.27A24.21,24.21,0,0,0,112,71.3a22,22,0,0,0,6.91-4A33.71,33.71,0,0,0,125.09,59.34Zm0-15.16a24.19,24.19,0,0,0-4.22-9.26,20.06,20.06,0,0,0-7.33-5.59A22.54,22.54,0,0,0,104,27.21a20.65,20.65,0,0,0-14.24,5.33q-4.35,3.89-6.58,11.64Z"/><path class="cls-2" d="M141.23,21.73h7.71l18.89,41,18.67-41h7.76L168.5,78h-1.35Z"/><path class="cls-2" d="M252.67,59.34l6.1,3.21a33.25,33.25,0,0,1-6.94,9.52A27.59,27.59,0,0,1,243,77.58a30.85,30.85,0,0,1-11.13,1.89q-13.78,0-21.55-9A30.49,30.49,0,0,1,202.54,50a30.11,30.11,0,0,1,6.57-19.09q8.34-10.67,22.32-10.66,14.4,0,23,10.92,6.12,7.71,6.22,19.24H210q.19,9.81,6.26,16.08a20,20,0,0,0,15,6.27,24.21,24.21,0,0,0,8.37-1.49,22,22,0,0,0,6.91-4A33.71,33.71,0,0,0,252.67,59.34Zm0-15.16a24.19,24.19,0,0,0-4.22-9.26,20.06,20.06,0,0,0-7.33-5.59,22.54,22.54,0,0,0-9.59-2.12,20.65,20.65,0,0,0-14.24,5.33q-4.35,3.89-6.58,11.64Z"/><path class="cls-2" d="M273.05,0h7.25V78h-7.25Z"/><path class="cls-2" d="M322,20.28a27.86,27.86,0,0,1,21.56,9.42A29.25,29.25,0,0,1,351.33,50a29.3,29.3,0,0,1-8.22,20.62q-8.21,8.82-21.12,8.82t-21.17-8.82A29.33,29.33,0,0,1,292.61,50a29.21,29.21,0,0,1,7.77-20.28A27.88,27.88,0,0,1,322,20.28Zm0,7.09A20.88,20.88,0,0,0,306.45,34,22.29,22.29,0,0,0,300,50.18a22.85,22.85,0,0,0,3,11.39,20.92,20.92,0,0,0,8,8.14,22.75,22.75,0,0,0,22.12,0,21,21,0,0,0,8-8.14,22.85,22.85,0,0,0,3-11.39A22.27,22.27,0,0,0,337.47,34,20.93,20.93,0,0,0,322,27.37Z"/><path class="cls-2" d="M364.83,21.73h7.25V32.08A29,29,0,0,1,382,23.23a26.18,26.18,0,0,1,12.45-2.95,27.78,27.78,0,0,1,20.52,8.64,28.52,28.52,0,0,1,8.53,20.8A29.08,29.08,0,0,1,415,70.8a28.42,28.42,0,0,1-32.74,5.87,31,31,0,0,1-10.18-8.33V98.61h-7.25Zm29,5.53A21.27,21.27,0,0,0,378,33.83a22.42,22.42,0,0,0-6.42,16.33,23.16,23.16,0,0,0,2.86,11.52,20.86,20.86,0,0,0,8.21,8.11,22.69,22.69,0,0,0,11.28,3,21.24,21.24,0,0,0,11-3,22.23,22.23,0,0,0,8.18-8.45,22.85,22.85,0,0,0,0-22.74A21.85,21.85,0,0,0,393.8,27.26Z"/><path class="cls-2" d="M484.39,59.34l6.11,3.21a33.44,33.44,0,0,1-6.94,9.52,27.63,27.63,0,0,1-8.86,5.51,30.85,30.85,0,0,1-11.13,1.89q-13.77,0-21.54-9A30.45,30.45,0,0,1,434.26,50a30.07,30.07,0,0,1,6.58-19.09q8.34-10.67,22.32-10.66,14.38,0,23,10.92,6.11,7.71,6.21,19.24H441.71q.21,9.81,6.27,16.08a20,20,0,0,0,15,6.27,24.2,24.2,0,0,0,8.36-1.49,22.1,22.1,0,0,0,6.92-4A33.72,33.72,0,0,0,484.39,59.34Zm0-15.16a23.9,23.9,0,0,0-4.22-9.26,20.06,20.06,0,0,0-7.33-5.59,22.5,22.5,0,0,0-9.58-2.12A20.65,20.65,0,0,0,449,32.54q-4.35,3.89-6.57,11.64Z"/><path class="cls-2" d="M562.05,0V78h-7.14V68.34a31,31,0,0,1-10.22,8.33,28.52,28.52,0,0,1-32.8-5.87,29,29,0,0,1-8.46-21.08A28.53,28.53,0,0,1,512,28.92a27.84,27.84,0,0,1,20.54-8.64,26.49,26.49,0,0,1,12.54,2.95,28.48,28.48,0,0,1,9.86,8.85V0ZM533.1,27.26a21.88,21.88,0,0,0-19.3,11.32,22.82,22.82,0,0,0,0,22.74A22.18,22.18,0,0,0,522,69.77a21.32,21.32,0,0,0,11,3,22.63,22.63,0,0,0,11.27-3,21,21,0,0,0,8.19-8.11,23.16,23.16,0,0,0,2.86-11.52,22.39,22.39,0,0,0-6.43-16.33A21.3,21.3,0,0,0,533.1,27.26Z"/><circle class="cls-2" cx="419.52" cy="133.21" r="22.13"/></g></g></svg>